# xmcd
#
# Track frame offsets: 
#        150
#        21837
#        40967
#        67465
#        86537
#        103832
#        122877
#        148532
#        170265
#        190927
#        208417
#        230605
#        248992
#        262647
#        279300
#        303292
#        324942
#
# Disc length: 4761 seconds
#
# Revision: 2
# Processed by: cddbd v1.5.2PL0 Copyright (c) Steve Scherf et al.
# Submitted via: ExactAudioCopy v0.95b4
#
DISCID=f6129711
DTITLE=Various Artist - In Love With Jesus 7 - CD 2
DYEAR=2005
DGENRE=Christian Gangsta Rap
TTITLE0=Martin Smith und Stuart Garrard/Gott ist genial
TTITLE1=Lothar Kosse/Lied des Himmels
TTITLE2=Andrea Kölsch und Oliver Dangendorf/Voller Ehrfurcht
TTITLE3=Martin Pepper/Fels
TTITLE4=Arne Kopfermann/Nur ein Tag
TTITLE5=Chris Mühlan/Du hast die Macht
TTITLE6=Kristian Reschke/Jesus, mit deinen Augen (Bonustrack)
TTITLE7=Lothar Kosse/Ich hebe die Augen auf zu den Bergen (Bonustrack)
TTITLE8=Daniel Jacobi/Manchmal
TTITLE9=Andrea Kölsch und Oliver Dangendorf/Komme bald
TTITLE10=Arne Kopfermann/Über dem Meer
TTITLE11=Lothar Kosse/Grösser als jede Macht der Welt
TTITLE12=Tina Panti/Du allein
TTITLE13=Thea Eichholz-Müller/Keine Macht der Welt
TTITLE14=Arne Kopfermann/Gebet des Jabez
TTITLE15=Andrea Adams-Frey/Hier bin ich
TTITLE16=Gaetan Roy/Es gibt einen Ort zum Beten
EXTD=www.gerth.de - ArtNo. 946296
EXTT0=
EXTT1=
EXTT2=
EXTT3=
EXTT4=
EXTT5=
EXTT6=
EXTT7=
EXTT8=
EXTT9=
EXTT10=
EXTT11=
EXTT12=
EXTT13=
EXTT14=
EXTT15=
EXTT16=
PLAYORDER=
